<?xml version="1.0" encoding="UTF-8"?>
<svg width="111px" height="50px" viewBox="0 0 111 50" version="1.1" xmlns="http://www.w3.org/2000/svg" xmlns:xlink="http://www.w3.org/1999/xlink">
    <!-- Generator: Sketch 53.2 (72643) - https://sketchapp.com -->
    <title>stanza-logo-white</title>
    <desc>Created with Sketch.</desc>
    <g id="About-Us" stroke="none" stroke-width="1" fill="none" fill-rule="evenodd">
        <g transform="translate(-240.000000, -20.000000)" fill="#FFFFFF" id="header">
            <g transform="translate(240.000000, 20.000000)">
                <g id="stanza-logo-white">
                    <path d="M10.0782397,-7.10542736e-15 C10.0782397,0.969097222 10.0782397,1.93784722 10.0782397,2.94513889 C7.87469716,3.078125 5.71002208,3.21111111 3.48722082,3.34409722 C3.37236909,5.16805556 3.33385174,6.97291667 3.23790852,8.77777778 C3.14231546,10.5829861 3.08488959,12.4069444 3.00820505,14.2118056 C2.73998423,14.3069444 0.421589905,14.3069444 0.0192586751,14.2309028 C0.0192586751,14.1166667 0,13.9836806 0,13.8697917 C0,9.36701389 0,4.86388889 0,0.342013889 C0,0.228125 0.0192586751,0.114236111 0.0192586751,-7.10542736e-15 C3.39162776,-7.10542736e-15 6.72512934,-7.10542736e-15 10.0782397,-7.10542736e-15" id="Fill-90"></path>
                    <path d="M110.995448,14.26875 C110.037416,14.26875 109.060476,14.26875 108.063927,14.26875 C107.910909,10.6399306 107.757539,7.01076389 107.60417,3.34409722 C105.420237,3.21111111 103.254861,3.078125 101.051319,2.94513889 C101.03206,2.85 101.013151,2.77395833 101.013151,2.69791667 C101.013151,1.86180556 101.013151,1.00694444 101.013151,0.171180556 C101.013151,0.113888889 101.03206,0.0569444444 101.03206,2.13162821e-14 C104.347003,2.13162821e-14 107.680855,2.13162821e-14 110.995448,2.13162821e-14 C110.995448,4.75 110.995448,9.5 110.995448,14.26875" id="Fill-91"></path>
                    <path d="M54.1851577,21.5267361 C54.1851577,18.1635417 54.1851577,14.8388889 54.1851577,11.4569444 C53.4190126,11.3048611 52.6525174,11.1527778 51.8860221,11.0010417 C51.8860221,10.1079861 51.8860221,9.25277778 51.8860221,8.36006944 C54.0321388,8.36006944 56.1782555,8.36006944 58.3429306,8.36006944 C58.4003565,9.08194444 58.477041,9.80381944 58.534817,10.5256944 C58.5540757,10.5256944 58.5729842,10.5447917 58.5922429,10.5447917 C58.6689274,10.45 58.745612,10.3548611 58.8219464,10.2600694 C59.6458675,9.21493056 60.6613249,8.45486111 62.002429,8.16979167 C63.1138297,7.94201389 64.2252303,7.97986111 65.3173722,8.37881944 C66.8118454,8.92986111 67.7124511,10.0319444 68.134041,11.5329861 C68.3830032,12.3878472 68.4978549,13.2809028 68.4978549,14.1739583 C68.4978549,16.4729167 68.4978549,18.7715278 68.4978549,21.0708333 C68.4978549,21.2038194 68.4978549,21.3555556 68.4978549,21.5267361 C69.2072744,21.6788194 69.896735,21.8305556 70.6058044,21.9826389 C70.6058044,22.8565972 70.6058044,23.7114583 70.6058044,24.5666667 C70.3372334,24.6427083 62.577388,24.6614583 62.1754069,24.5857639 C62.1754069,23.7305556 62.1754069,22.8944444 62.1754069,21.9826389 C62.7692744,21.8305556 63.3824006,21.6788194 64.033694,21.5267361 C64.033694,21.4315972 64.0529527,21.3177083 64.0529527,21.2225694 C64.0529527,18.9427083 64.0529527,16.64375 64.0529527,14.3638889 C64.0529527,13.9836806 63.9955268,13.5847222 63.9188423,13.2239583 C63.7269558,12.2927083 63.152347,11.7420139 62.2328328,11.5708333 C61.5048549,11.4378472 60.7761767,11.4378472 60.0867161,11.7420139 C59.7992366,11.8559028 59.5310158,12.0458333 59.262795,12.2170139 C58.841205,12.5017361 58.6496688,12.8819444 58.6689274,13.4326389 C58.7070946,15.9975694 58.6881861,18.5628472 58.6881861,21.1277778 C58.6881861,21.2607639 58.6881861,21.3746528 58.6881861,21.5267361 C59.2820536,21.6788194 59.8566625,21.8305556 60.4508801,21.9826389 C60.4508801,22.8565972 60.4508801,23.7305556 60.4508801,24.6045139 C57.6723785,24.6045139 54.9323943,24.6045139 52.1542429,24.6045139 C52.1542429,23.7305556 52.1542429,22.8944444 52.1542429,21.9826389 C52.7866278,21.8496528 53.4571798,21.6975694 54.1851577,21.5267361" id="Fill-92"></path>
                    <path d="M44.9886151,17.7458333 C44.9119306,17.7458333 44.8541546,17.7267361 44.7967287,17.7267361 C44.0494921,17.7267361 43.2829968,17.7267361 42.5361104,17.7267361 C42.0952618,17.7267361 41.6736719,17.8027778 41.2709905,17.9927083 C40.5622713,18.315625 40.1025142,18.8475694 39.9491451,19.6076389 C39.795776,20.4628472 40.1791987,21.2038194 40.9264353,21.5076389 C41.1753975,21.6027778 41.4821356,21.6597222 41.7500063,21.6788194 C42.9573502,21.7357639 43.9920662,21.3368056 44.8156372,20.44375 C44.9500978,20.2916667 45.0075237,20.1395833 45.0075237,19.9496528 C44.9886151,19.3225694 45.0075237,18.6767361 45.0075237,18.0496528 C45.0075237,17.9357639 44.9886151,17.840625 44.9886151,17.7458333 Z M49.5102019,21.7927083 C50.0081262,21.86875 50.4300662,21.9256944 50.8516562,21.9826389 C50.8516562,22.8565972 50.8516562,23.7114583 50.8516562,24.5857639 C49.146388,24.5857639 47.4600284,24.5857639 45.7165931,24.5857639 C45.5439653,24.0534722 45.3713375,23.540625 45.1608927,22.9135417 C45.0649495,23.0465278 45.0075237,23.1607639 44.9308391,23.2368056 C43.5512177,24.5857639 41.8841167,25.0795139 39.9873123,24.8895833 C39.3552776,24.8326389 38.7228927,24.6996528 38.1479338,24.4336806 C36.5771262,23.6927083 35.7146877,22.4576389 35.5424101,20.7475694 C35.4849842,20.1395833 35.4849842,19.5315972 35.6380032,18.9236111 C35.8869653,17.9166667 36.4619243,17.1569444 37.3051041,16.5677083 C38.1479338,15.9979167 39.0870568,15.69375 40.0832555,15.5038194 C41.0412871,15.3326389 41.9993186,15.2756944 42.9762587,15.2947917 C43.6279022,15.2947917 44.2988044,15.2947917 44.9308391,15.2947917 C44.9693565,15.2569444 44.9886151,15.2378472 44.9886151,15.21875 C44.9886151,14.5916667 45.0267823,13.9836806 44.9886151,13.3569444 C44.8926719,12.2357639 44.2599369,11.5517361 43.1492366,11.3427083 C42.1908549,11.1527778 41.252082,11.2666667 40.3514763,11.6659722 C40.1214227,11.7607639 40.006571,11.89375 39.9684038,12.1597222 C39.9109779,12.6159722 39.8150347,13.0909722 39.7383502,13.546875 C39.4701293,13.6229167 36.7879211,13.6420139 36.4044984,13.5659722 C36.4044984,13.4708333 36.3852397,13.3756944 36.3852397,13.2618056 C36.3852397,12.2739583 36.4044984,11.2666667 36.4044984,10.2788194 C36.4044984,10.0506944 36.481183,9.91770833 36.6727192,9.80381944 C38.1671924,8.89201389 39.7576088,8.24583333 41.5203028,8.11284722 C43.0340347,7.97986111 44.5285079,8.075 45.9655552,8.64479167 C46.5786814,8.89201389 47.1340315,9.21493056 47.632306,9.61388889 C48.6481136,10.45 49.2038139,11.5517361 49.3760915,12.84375 C49.4142587,13.2239583 49.4335174,13.6229167 49.4335174,14.0027778 C49.4335174,16.3399306 49.4335174,18.6576389 49.4335174,20.9947917 C49.4716845,21.2607639 49.4909432,21.5076389 49.5102019,21.7927083 L49.5102019,21.7927083 Z" id="Fill-93"></path>
                    <path d="M97.8326688,17.7458333 C97.7367256,17.7267361 97.6985584,17.7267361 97.6407823,17.7267361 C96.8935457,17.7267361 96.1270505,17.7076389 95.380164,17.7458333 C94.9967413,17.7649306 94.6133186,17.821875 94.2302461,17.9548611 C93.559694,18.1635417 93.0806782,18.6197917 92.8313659,19.3038194 C92.4868107,20.2725694 92.8506246,21.5454861 94.3836151,21.6788194 C94.6707445,21.6975694 94.9774826,21.6975694 95.2649621,21.6597222 C96.2229937,21.5454861 97.0083975,21.1277778 97.6407823,20.4059028 C97.7174669,20.3107639 97.7941514,20.1777778 97.7941514,20.0635417 C97.8515773,19.3038194 97.8326688,18.5246528 97.8326688,17.7458333 Z M97.8134101,15.3138889 C97.8134101,14.5916667 97.870836,13.9076389 97.7941514,13.2427083 C97.6596909,12.1597222 97.0083975,11.5138889 95.8780883,11.3427083 C94.9585741,11.2097222 94.076877,11.2857639 93.2147886,11.6659722 C92.9658265,11.7798611 92.8313659,11.9319444 92.7931987,12.2170139 C92.7357729,12.6729167 92.6590883,13.1097222 92.5824038,13.5659722 C92.314183,13.6420139 89.6508833,13.6607639 89.2292934,13.5847222 C89.2292934,13.4708333 89.2292934,13.3378472 89.2292934,13.2239583 C89.2292934,12.2548611 89.2485521,11.2857639 89.2485521,10.2979167 C89.2485521,10.0697917 89.3252366,9.93680556 89.517123,9.82291667 C91.0112461,8.91076389 92.6016625,8.26493056 94.3643565,8.13194444 C95.8780883,7.99895833 97.3725615,8.09375 98.8096088,8.66388889 C99.422735,8.91076389 99.9784353,9.23402778 100.47636,9.63298611 C101.472909,10.45 102.028609,11.5138889 102.200886,12.7868056 C102.258312,13.1666667 102.277571,13.5659722 102.277571,13.9458333 C102.277571,16.2826389 102.277571,18.6388889 102.277571,20.9756944 C102.277571,21.2416667 102.29683,21.5076389 102.315738,21.8118056 C102.775845,21.8878472 103.216694,21.9447917 103.657192,22.0017361 C103.657192,22.8756944 103.657192,23.7305556 103.657192,24.5857639 C103.388972,24.6618056 98.9822366,24.6805556 98.5221293,24.6045139 C98.3498517,24.1107639 98.177224,23.5784722 97.9856877,22.9517361 C97.870836,23.1038194 97.8134101,23.2177083 97.7174669,23.3125 C96.3378454,24.6427083 94.6903533,25.1368056 92.7931987,24.9465278 C92.2374984,24.8895833 91.7010568,24.7944444 91.1838738,24.5857639 C89.4978644,23.9017361 88.5587413,22.6288194 88.3482965,20.8427083 C88.271612,20.2347222 88.2908707,19.6267361 88.4246309,19.01875 C88.6735931,18.0118056 89.2292934,17.2326389 90.0724732,16.64375 C90.915653,16.0548611 91.8736845,15.7506944 92.8887918,15.5607639 C93.8279148,15.3895833 94.7859464,15.3326389 95.7439779,15.3517361 C96.4334385,15.3138889 97.1043407,15.3138889 97.8134101,15.3138889 L97.8134101,15.3138889 Z" id="Fill-94"></path>
                    <path d="M75.9898297,13.9076389 C74.8399117,13.9076389 73.7477697,13.9076389 72.6174606,13.9076389 C72.6174606,12.0649306 72.6174606,10.2409722 72.6174606,8.41701389 C72.8856814,8.34097222 84.8036498,8.30277778 85.6657382,8.37881944 C85.6846467,8.45486111 85.7039054,8.55 85.7039054,8.62569444 C85.7039054,9.29097222 85.7039054,9.95590278 85.7039054,10.6208333 C85.7039054,10.8298611 85.6079621,10.9819444 85.4931104,11.1336806 C83.0598644,14.3638889 80.6266183,17.5746528 78.1933722,20.8045139 C78.097429,20.91875 78.0203943,21.0517361 77.9248013,21.165625 C78.1933722,21.2416667 81.9677224,21.2607639 82.408571,21.1847222 C82.4659968,20.5006944 82.5234227,19.8166667 82.5808486,19.1517361 C82.8301609,19.0565972 85.4549432,19.0378472 85.9532177,19.1138889 C85.9532177,20.9375 85.9532177,22.7427083 85.9532177,24.5857639 C81.4312808,24.5857639 76.9286025,24.5857639 72.4066656,24.5857639 C72.3877571,24.5097222 72.3877571,24.4527778 72.3877571,24.3954861 C72.3877571,23.6545139 72.3877571,22.9135417 72.3877571,22.1725694 C72.3877571,22.0017361 72.4640915,21.8875 72.5600347,21.7736111 C74.2271356,19.5885417 75.8749779,17.4038194 77.5417287,15.1996528 C78.3271325,14.1548611 79.1128864,13.1288194 79.8986404,12.0836806 C79.9753249,11.9888889 80.0327508,11.89375 80.1283438,11.7607639 C78.8064984,11.7607639 77.5228202,11.7607639 76.2195331,11.7607639 C76.066164,12.4829861 76.0854227,13.1857639 75.9898297,13.9076389" id="Fill-95"></path>
                    <path d="M8.62193375,19.1895833 C9.63774132,19.1895833 10.6531987,19.1895833 11.6686562,19.1895833 C11.7071735,19.265625 11.7453407,19.3607639 11.7645994,19.4368056 C11.9176183,19.9496528 12.0709874,20.4628472 12.2047476,20.9947917 C12.2628738,21.2416667 12.3966341,21.4125 12.607429,21.4885417 C12.9523344,21.6215278 13.2972397,21.7548611 13.6421451,21.8118056 C14.4275489,21.9635417 15.2133028,21.9826389 15.9987066,21.7736111 C16.2861861,21.6975694 16.5544069,21.5836806 16.8033691,21.4315972 C17.6850662,20.8618056 17.7617508,19.740625 16.9952555,19.0378472 C16.707776,18.7715278 16.3628707,18.5815972 15.9797981,18.4677083 C15.3092461,18.2586806 14.6194353,18.06875 13.9485331,17.9166667 C12.9334259,17.6697917 11.9176183,17.4038194 10.9788454,16.9288194 C10.4420536,16.6628472 9.92522082,16.3399306 9.50363091,15.921875 C8.81382019,15.2565972 8.44965615,14.4208333 8.39223028,13.4708333 C8.27737855,11.3618056 9.4076877,9.57604167 11.4386025,8.70173611 C12.3392082,8.30277778 13.2779811,8.13194444 14.2552713,8.09375 C16.1139085,7.99895833 17.9147697,8.26493056 19.6392965,9.00590278 C20.1183123,9.21493056 20.5399022,9.5 20.9996593,9.76597222 C21.1341199,9.84201389 21.1915457,9.93680556 21.1915457,10.1079861 C21.1915457,11.3239583 21.2104543,12.5399306 21.2297129,13.7559028 C21.2297129,13.8128472 21.2104543,13.8697917 21.2104543,13.9458333 C20.233164,13.9458333 19.2558738,13.9458333 18.2596751,13.9458333 C18.1255647,13.4138889 17.9914543,12.8819444 17.895511,12.35 C17.8380852,12.0076389 17.6658076,11.8177083 17.3783281,11.646875 C16.3243533,11.0958333 15.2133028,10.925 14.063735,11.2288194 C13.6614038,11.3239583 13.3354069,11.5329861 13.0482776,11.8368056 C12.4351514,12.5017361 12.4925773,13.4899306 13.2012965,14.040625 C13.4313502,14.2309028 13.7188297,14.3826389 14.0063091,14.4777778 C14.7150284,14.6868056 15.4433565,14.8767361 16.1520757,15.0288194 C17.1486246,15.2565972 18.1255647,15.5038194 19.045429,15.940625 C19.5051861,16.16875 19.9460347,16.415625 20.3480158,16.7197917 C21.2871388,17.4038194 21.7472461,18.3729167 21.8428391,19.5125 C21.9769495,21.2038194 21.3445647,22.5336806 19.9842019,23.5215278 C19.0835962,24.1864583 18.0681388,24.5666667 16.9756467,24.7565972 C15.1747855,25.0607639 13.3928328,24.9847222 11.6301388,24.4336806 C10.6339401,24.1107639 9.71407571,23.6357639 8.89050473,22.9895833 C8.775653,22.8944444 8.66010095,22.7996528 8.66010095,22.6288194 C8.66010095,21.5267361 8.64119243,20.4246528 8.62193375,19.3225694 C8.60267508,19.2847222 8.60267508,19.246875 8.62193375,19.1895833" id="Fill-96"></path>
                    <path d="M25.9050189,11.4569444 C25.0807476,11.4569444 24.3146025,11.4569444 23.5288486,11.4569444 C23.5288486,10.4309028 23.5288486,9.42395833 23.5288486,8.37881944 C24.2953438,8.37881944 25.0807476,8.37881944 25.9050189,8.37881944 C25.9050189,7.02986111 25.9050189,5.71909722 25.9050189,4.38888889 C27.3798833,4.38888889 28.8169306,4.38888889 30.2732366,4.38888889 C30.3691798,4.71215278 30.3114038,5.03506944 30.3114038,5.35798611 C30.3306625,5.68090278 30.3114038,6.02291667 30.3114038,6.34583333 C30.3114038,6.66875 30.3114038,7.01076389 30.3114038,7.33402778 C30.3114038,7.65694444 30.3114038,7.97986111 30.3114038,8.36006944 C31.2697855,8.36006944 32.2082082,8.36006944 33.1665899,8.36006944 C33.1665899,9.40486111 33.1665899,10.4118056 33.1665899,11.4378472 C32.8598517,11.5138889 32.5534637,11.4569444 32.2274669,11.4756944 C31.9210789,11.4756944 31.6143407,11.4756944 31.3079527,11.4756944 C30.982306,11.4756944 30.675918,11.4756944 30.3306625,11.4756944 C30.3114038,11.6090278 30.3114038,11.7038194 30.3114038,11.7989583 C30.3114038,14.4399306 30.3114038,17.0996528 30.3114038,19.740625 C30.3114038,20.0256944 30.3499211,20.3107639 30.4266057,20.5767361 C30.5603659,21.1086806 30.9437886,21.4315972 31.4802303,21.4506944 C32.0170221,21.4697917 32.5534637,21.39375 33.0899054,21.3746528 C33.1473312,21.3746528 33.2047571,21.3555556 33.3007003,21.3368056 C33.4344606,22.3815972 33.5496625,23.4267361 33.6837729,24.5288194 C33.3007003,24.6236111 32.9365363,24.71875 32.5727224,24.7944444 C31.499489,25.0034722 30.4266057,25.0795139 29.3341136,24.8517361 C27.4758265,24.490625 26.3836845,23.3697917 26.0198707,21.5267361 C25.9050189,20.9375 25.8661514,20.3486111 25.8661514,19.740625 C25.8661514,17.1378472 25.8661514,14.5347222 25.8661514,11.9319444 C25.9050189,11.7798611 25.9050189,11.6277778 25.9050189,11.4569444" id="Fill-97"></path>
                    <path d="M72.0999274,35.7385417 C71.5253186,35.68125 71.0273943,35.7003472 70.5483785,35.8333333 C70.0115868,35.9663194 69.5136625,36.1753472 69.0917224,36.5364583 C68.7853344,36.7833333 68.6130568,37.10625 68.6323155,37.5055556 C68.6323155,37.7715278 68.7279085,37.8284722 68.9961293,37.7902778 C69.4177192,37.7333333 69.7818833,37.5434028 70.1267886,37.2965278 C70.7013975,36.8784722 71.2763565,36.4413194 71.8509653,36.0045139 C71.9083912,35.9475694 71.9850757,35.8524306 72.0999274,35.7385417 Z M38.9914637,35.0354167 C39.0870568,34.9975694 39.1444826,34.9975694 39.1826498,34.9784722 C40.1984574,34.5034722 41.1372303,33.9333333 41.9804101,33.2114583 C42.2482808,32.9833333 42.4783344,32.6986111 42.6891293,32.4322917 C42.8424984,32.2423611 42.9188328,32.0145833 42.8999243,31.7673611 C42.8806656,31.4256944 42.6698707,31.2354167 42.3249653,31.3114583 C42.0952618,31.3684028 41.8652082,31.4444444 41.6925804,31.5965278 C41.3672839,31.8625 41.0220284,32.1666667 40.7730662,32.5083333 C40.1791987,33.2875 39.6427571,34.0854167 39.0677981,34.8833333 C39.0488896,34.9024306 39.0296309,34.9402778 38.9914637,35.0354167 Z M70.1456972,40.9253472 C70.0501041,40.9444444 69.9926782,40.9631944 69.9352524,40.9631944 C68.6897413,41.2482639 67.4827476,41.5902778 66.2946625,42.0652778 C65.3173722,42.4451389 64.3975079,42.9013889 63.5928454,43.5663194 C62.5199621,44.459375 61.906836,45.5611111 61.8494101,46.9673611 C61.8301514,47.4232639 61.906836,47.8600694 62.1368896,48.259375 C62.4432776,48.7722222 62.9222934,49.0003472 63.516511,48.8670139 C63.7462145,48.8100694 63.9570095,48.7152778 64.1678044,48.6201389 C65.6048517,47.8600694 66.7544196,46.8152778 67.6550252,45.4663194 C68.5556309,44.1173611 69.3221262,42.6923611 70.0115868,41.2291667 C70.0690126,41.134375 70.10753,41.0583333 70.1456972,40.9253472 Z M44.4329148,38.4364583 C44.6051924,38.3222222 44.77747,38.2083333 44.9500978,38.0753472 C45.7929274,37.3534722 46.6361073,36.63125 47.4792871,35.9284722 C47.6708233,35.7763889 47.8627098,35.6055556 48.0731546,35.4913194 C48.5332618,35.2444444 48.9545016,35.4534722 48.9734101,35.9663194 C48.9926688,36.4034722 48.9159842,36.859375 48.877817,37.2965278 C48.8396498,37.7333333 48.8011325,38.1513889 48.782224,38.5881944 C48.782224,38.7402778 48.8396498,38.8923611 48.877817,39.1013889 C49.0504448,39.0253472 49.1652965,38.9875 49.2612397,38.9114583 C49.4335174,38.7975694 49.5865363,38.6833333 49.7402555,38.5503472 C50.4874921,37.8854167 51.1769527,37.1635417 51.8093375,36.384375 C51.9241893,36.2322917 52.001224,36.0993056 51.9627066,35.909375 C51.9434479,35.8142361 51.9627066,35.7003472 51.9816151,35.6055556 C52.0779085,35.2635417 52.3457792,35.1114583 52.6910347,35.2253472 C52.9974227,35.3204861 53.131183,35.5864583 53.0163312,35.9284722 C52.978164,36.0423611 52.9207382,36.1565972 52.8633123,36.2704861 C53.131183,36.7645833 53.5146057,36.8975694 54.0128801,36.6503472 C54.5304132,36.4034722 54.9901703,36.0423611 55.4114101,35.6434028 C55.6799811,35.3965278 55.833,35.3583333 56.0245363,35.4913194 C56.2356814,35.6243056 56.2356814,35.7954861 56.0627035,36.1375 C55.7374069,36.7645833 55.5651293,37.4482639 55.4306688,38.1322917 C55.4306688,38.1704861 55.4306688,38.2274306 55.4499274,38.3222222 C55.7374069,38.1322917 56.0052776,37.9993056 56.2545899,37.809375 C56.8677161,37.3534722 57.4619338,36.8784722 58.0750599,36.4225694 C58.4577823,36.1375 58.841205,35.8715278 59.2246278,35.6055556 C59.569183,35.3774306 59.9526057,35.2253472 60.3741956,35.1684028 C60.8336025,35.1114583 61.1214322,35.3204861 61.1403407,35.7763889 C61.1403407,36.0045139 61.1021735,36.2513889 61.0447476,36.4604167 C60.9106372,36.9163194 60.7380095,37.3725694 60.5849905,37.8284722 C60.5464732,37.9423611 60.508306,38.0375 60.508306,38.1895833 C60.5849905,38.1135417 60.6805836,38.0184028 60.7572681,37.9423611 C61.4659874,37.2392361 62.1754069,36.5364583 62.9989779,35.9475694 C63.3249748,35.7003472 63.6887886,35.4913194 64.0529527,35.3013889 C64.2252303,35.20625 64.4549338,35.1493056 64.6468202,35.1114583 C65.0491514,35.0545139 65.2981136,35.2253472 65.4133155,35.6243056 C65.5281672,36.0614583 65.4896498,36.4795139 65.3747981,36.9163194 C65.279205,37.334375 65.1450946,37.7524306 65.0298927,38.1704861 C65.0106341,38.2274306 64.9917256,38.3034722 64.9724669,38.4173611 C65.0876688,38.3795139 65.1643533,38.3795139 65.2406877,38.3413194 C66.4095142,37.8663194 67.463489,37.2204861 68.3255773,36.2704861 C68.9961293,35.5104167 69.8585678,35.1875 70.8162492,34.9975694 C71.4293754,34.8833333 72.0617603,34.9024306 72.6748864,35.0545139 C72.751571,35.0732639 72.809347,35.0923611 72.8856814,35.1114583 C73.2494953,35.2444444 73.3072713,35.3774306 73.1731609,35.7194444 C72.8856814,36.4604167 72.5982019,37.2013889 72.3110726,37.9423611 C72.0999274,38.4555556 71.870224,38.9684028 71.659429,39.5003472 C71.6212618,39.5763889 71.6020032,39.6715278 71.5442271,39.8045139 C71.9083912,39.7472222 72.234388,39.6902778 72.540776,39.6142361 C75.2618517,39.1204861 77.9822271,38.6454861 80.6647855,37.9993056 C84.1520063,37.1635417 87.5240252,36.0045139 90.7815426,34.484375 C91.3372429,34.2184028 91.9118517,33.9715278 92.4675521,33.6673611 C92.7931987,33.4965278 93.0806782,33.2684028 93.3681577,33.040625 C93.7130631,32.7364583 93.9427666,32.3565972 93.9427666,31.8815972 C93.9427666,31.634375 94.0576183,31.5204861 94.2687634,31.5204861 C94.4792082,31.5204861 94.651836,31.634375 94.6900032,31.8625 C94.7285205,32.1854167 94.6900032,32.5083333 94.5177256,32.7746528 C94.3454479,33.059375 94.1539117,33.3253472 93.9045994,33.534375 C93.5789527,33.8003472 93.2147886,34.0284722 92.8506246,34.2375 C91.2987256,35.1493056 89.6319748,35.8333333 87.9456151,36.4982639 C84.6502808,37.809375 81.2397445,38.7784722 77.7525237,39.4052083 C75.6638328,39.7854167 73.5754921,40.2034722 71.4678927,40.5833333 C71.1996719,40.6402778 71.046653,40.7545139 70.9311009,41.0013889 C70.3950095,42.1034722 69.8585678,43.1864583 69.3028675,44.2694444 C68.4978549,45.8274306 67.4253218,47.1572917 66.0646088,48.278125 C65.5089085,48.7340278 64.9532082,49.1520833 64.2826562,49.3993056 C63.9955268,49.5131944 63.6887886,49.6083333 63.363142,49.6461806 C62.6155552,49.7413194 62.0216877,49.45625 61.6197066,48.8291667 C61.1595994,48.1260417 60.9873218,47.3663194 61.1214322,46.5493056 C61.4278202,44.70625 62.4240189,43.28125 64.0144353,42.2934028 C65.5281672,41.38125 67.1760095,40.8114583 68.8812776,40.3743056 C69.3795521,40.2413194 69.896735,40.1274306 70.3950095,40.0131944 C70.5291199,39.9753472 70.6247129,39.9184028 70.6821388,39.7854167 C71.046653,38.8923611 71.4293754,37.9802083 71.7935394,37.0875 C71.7935394,37.0684028 71.7935394,37.0493056 71.7935394,36.9923611 C71.717205,37.0493056 71.6405205,37.0875 71.563836,37.1253472 C71.0848202,37.4486111 70.6058044,37.7715278 70.10753,38.05625 C69.801142,38.2274306 69.4369779,38.3604167 69.0917224,38.4555556 C68.5552808,38.5885417 68.1532997,38.3604167 67.9232461,37.8663194 C67.8847287,37.7902778 67.8658202,37.7145833 67.8273028,37.6385417 C67.3482871,37.9423611 66.8696215,38.2652778 66.371347,38.53125 C65.9690158,38.759375 65.5470757,38.9305556 65.125836,39.0822917 C64.9724669,39.1392361 64.7809306,39.1583333 64.608653,39.1392361 C64.340082,39.1392361 64.1870631,38.9875 64.1678044,38.7215278 C64.1485457,38.4743056 64.1678044,38.2274306 64.2252303,37.9993056 C64.340082,37.5055556 64.5127098,37.0114583 64.6275615,36.5173611 C64.6853375,36.2704861 64.7427634,36.0236111 64.5701356,35.7572917 C64.1870631,35.8524306 63.8806751,36.0614583 63.5928454,36.3083333 C63.0182366,36.7833333 62.4432776,37.2774306 61.8875773,37.7902778 C61.4278202,38.2274306 60.9873218,38.6833333 60.5272145,39.1204861 C60.3549369,39.2913194 60.1630505,39.4625 59.9526057,39.5954861 C59.6458675,39.7854167 59.4350726,39.6902778 59.3394795,39.3482639 C59.3013123,39.1774306 59.2820536,38.9875 59.3202208,38.8354167 C59.416164,38.4743056 59.5310158,38.1135417 59.6654763,37.7715278 C59.8377539,37.334375 60.0292902,36.9163194 60.2015678,36.4795139 C60.2786025,36.3083333 60.3167697,36.1375 60.3934543,35.8902778 C60.2589937,35.909375 60.1630505,35.909375 60.0867161,35.9475694 C59.8377539,36.0805556 59.569183,36.1944444 59.3394795,36.3652778 C58.7070946,36.8024306 58.0939685,37.2583333 57.4808423,37.7142361 C57.0403438,38.0375 56.6184038,38.3604167 56.1589968,38.6642361 C55.9096845,38.8354167 55.6225552,38.9493056 55.3347256,39.0444444 C55.009429,39.1392361 54.740858,39.00625 54.645265,38.6642361 C54.5878391,38.4173611 54.5878391,38.1513889 54.6067476,37.9045139 C54.645265,37.6385417 54.7215994,37.3534722 54.7982839,37.0305556 C54.338877,37.2392361 53.9554543,37.4864583 53.4764385,37.4864583 C52.978164,37.4864583 52.6143502,37.2013889 52.2694448,36.859375 C52.1542429,36.9923611 52.0393912,37.1253472 51.9241893,37.2583333 C51.2918044,37.9993056 50.6212524,38.7024306 49.8358486,39.3104167 C49.5865363,39.5003472 49.3186656,39.6524306 49.0504448,39.7472222 C48.5140032,39.9184028 48.1880063,39.7284722 48.0349874,39.1774306 C47.900877,38.6833333 47.9583028,38.1704861 48.0157287,37.6763889 C48.0731546,37.2204861 48.1113218,36.7645833 48.1690978,36.3274306 C48.1498391,36.3083333 48.1113218,36.2895833 48.0924132,36.2704861 C47.99647,36.3465278 47.900877,36.4034722 47.8049338,36.4982639 C47.3451767,36.9163194 46.8854196,37.334375 46.4060536,37.7333333 C45.9844637,38.0944444 45.5439653,38.4364583 45.1034669,38.759375 C44.8926719,38.9114583 44.6241009,39.0253472 44.375489,39.1204861 C43.896123,39.2722222 43.5704763,39.0635417 43.5512177,38.5694444 C43.531959,38.1704861 43.5893849,37.7715278 43.6471609,37.3913194 C43.6856782,37.0875 43.7623628,36.8024306 43.8386972,36.4413194 C43.6856782,36.5555556 43.5893849,36.6125 43.4937918,36.6885417 C42.3631325,37.5434028 41.2328233,38.4173611 40.0836057,39.2534722 C39.2211672,39.8993056 38.3209117,40.4503472 37.3243628,40.8875 C37.0176246,41.0204861 36.7112366,41.1152778 36.3852397,41.1534722 C35.7339464,41.2291667 35.2738391,40.8302083 35.1782461,40.184375 C35.1208202,39.7854167 35.1782461,39.3864583 35.3316151,39.00625 C35.599836,38.3795139 35.9447413,37.8284722 36.3470726,37.2774306 C36.5000915,37.0684028 36.6538107,36.859375 36.8260883,36.6125 C36.7112366,36.6125 36.6538107,36.6125 36.5963849,36.63125 C34.8144322,37.0493056 33.0324795,37.4673611 31.2312681,37.8854167 C28.433858,38.5503472 25.6364479,39.1774306 22.8579464,39.8614583 C21.8620978,40.1083333 20.9037161,40.4881944 19.9460347,40.8302083 C19.6200379,40.9444444 19.3136498,41.1152778 19.0261703,41.2864583 C18.6045804,41.5333333 18.2789338,41.8371528 18.106306,42.3125 C18.0296215,42.5402778 17.8191767,42.6163194 17.589123,42.5402778 C17.3975868,42.4642361 17.3016435,42.2743056 17.3975868,42.0461806 C17.5316972,41.7802083 17.6850662,41.5142361 17.8766025,41.2864583 C18.2025994,40.9253472 18.6238391,40.6784722 19.045429,40.4694444 C20.3098486,39.8423611 21.631694,39.4052083 22.9924069,39.0444444 C26.1347224,38.2083333 29.3341136,37.5243056 32.5149464,36.859375 C34.1050126,36.5173611 35.695429,36.1753472 37.2284196,35.6625 C37.4584732,35.5864583 37.6307508,35.4725694 37.7652114,35.2635417 C38.3209117,34.4083333 38.8955205,33.5534722 39.4701293,32.7173611 C39.8150347,32.2236111 40.1984574,31.7673611 40.58153,31.3114583 C40.8308423,31.0263889 41.1561388,30.7986111 41.5203028,30.6465278 C41.8844669,30.4944444 42.2675394,30.4565972 42.6698707,30.5513889 C43.2829968,30.7034722 43.6086435,31.2545139 43.5130505,31.8625 C43.4363659,32.3375 43.225571,32.7555556 42.9380915,33.1354167 C42.5550189,33.6295139 42.0760032,34.0284722 41.5588202,34.3895833 C40.5430126,35.0736111 39.4704795,35.6055556 38.3398202,36.0423611 C38.1290252,36.1184028 37.9756562,36.2322917 37.8608044,36.4225694 C37.4010473,37.0875 36.9409401,37.7142361 36.481183,38.3795139 C36.2322208,38.7402778 35.9832587,39.1013889 35.906224,39.5385417 C35.8680568,39.709375 35.8680568,39.9184028 35.906224,40.0892361 C35.9447413,40.3173611 36.0599432,40.3934028 36.270388,40.3743056 C36.481183,40.3552083 36.6919779,40.3364583 36.8835142,40.2413194 C37.3243628,40.0322917 37.7841199,39.8232639 38.1864511,39.5572917 C39.6620158,38.6263889 41.0605457,37.5815972 42.4209085,36.5173611 C42.8999243,36.1565972 43.3596814,35.7763889 43.8386972,35.3965278 C43.896123,35.3395833 43.9728076,35.2822917 44.0302334,35.2444444 C44.3177129,35.0545139 44.6241009,35.1684028 44.6626183,35.5104167 C44.7007855,35.7763889 44.681877,36.0805556 44.6241009,36.3465278 C44.5285079,36.8215278 44.3943975,37.2774306 44.2795457,37.7524306 C44.2413785,37.9232639 44.2413785,38.1135417 44.2221199,38.3034722 C44.375489,38.3795139 44.3943975,38.3982639 44.4329148,38.4364583 L44.4329148,38.4364583 Z" id="Fill-98"></path>
                    <path d="M56.043795,34.4465278 C55.8140915,34.4465278 55.6032965,34.4465278 55.5073533,34.1993056 C55.3921514,33.9333333 55.3732429,33.6673611 55.6032965,33.4395833 C55.7755741,33.2493056 55.9863691,33.0784722 56.197164,32.9454861 C56.4846435,32.7555556 57.1741041,32.9833333 57.3082145,33.3065972 C57.4045079,33.534375 57.3852492,33.7434028 57.2126215,33.9333333 C56.8869748,34.2753472 56.5035521,34.4465278 56.043795,34.4465278" id="Fill-99"></path>
                    <path d="M45.5057981,34.2375 C45.046041,34.2375 44.7200442,33.8385417 44.8348959,33.4774306 C45.0075237,32.9645833 45.3713375,32.6225694 45.8888707,32.4704861 C46.2530347,32.3565972 46.5019968,32.6034722 46.4253123,32.9645833 C46.3486278,33.3635417 46.1763502,33.7243056 45.869612,34.009375 C45.7355016,34.1423611 45.563224,34.1993056 45.5057981,34.2375" id="Fill-100"></path>
                </g>
            </g>
        </g>
    </g>
</svg>