<?xml version="1.0" encoding="UTF-8" standalone="no"?>
<svg
   xmlns:dc="http://purl.org/dc/elements/1.1/"
   xmlns:cc="http://creativecommons.org/ns#"
   xmlns:rdf="http://www.w3.org/1999/02/22-rdf-syntax-ns#"
   xmlns:svg="http://www.w3.org/2000/svg"
   xmlns="http://www.w3.org/2000/svg"
   xmlns:sodipodi="http://sodipodi.sourceforge.net/DTD/sodipodi-0.dtd"
   xmlns:inkscape="http://www.inkscape.org/namespaces/inkscape"
   width="111px"
   height="50px"
   viewBox="0 0 111 50"
   version="1.1"
   id="svg22"
   sodipodi:docname="stanza_living.jpg.svg"
   inkscape:version="0.92.4 (5da689c313, 2019-01-14)">
  <metadata
     id="metadata28">
    <rdf:RDF>
      <cc:Work
         rdf:about="">
        <dc:format>image/svg+xml</dc:format>
        <dc:type
           rdf:resource="http://purl.org/dc/dcmitype/StillImage" />
        <dc:title>stanza-logo-white</dc:title>
      </cc:Work>
    </rdf:RDF>
  </metadata>
  <defs
     id="defs26" />
  <sodipodi:namedview
     pagecolor="#ffffff"
     bordercolor="#666666"
     borderopacity="1"
     objecttolerance="10"
     gridtolerance="10"
     guidetolerance="10"
     inkscape:pageopacity="0"
     inkscape:pageshadow="2"
     inkscape:window-width="1920"
     inkscape:window-height="1051"
     id="namedview24"
     showgrid="false"
     inkscape:zoom="8.6381693"
     inkscape:cx="60.668735"
     inkscape:cy="29.457999"
     inkscape:window-x="-9"
     inkscape:window-y="-9"
     inkscape:window-maximized="1"
     inkscape:current-layer="About-Us" />
  <!-- Generator: Sketch 53.2 (72643) - https://sketchapp.com -->
  <title
     id="title2">stanza-logo-white</title>
  <desc
     id="desc4">Created with Sketch.</desc>
  <g
     id="About-Us"
     stroke="none"
     stroke-width="1"
     fill="none"
     fill-rule="evenodd">
    <g
       style="fill:#008080"
       id="g18"
       transform="translate(0.01986257,0.09590287)">
      <g
         id="stanza-logo-white"
         style="fill:#008080">
        <path
           inkscape:connector-curvature="0"
           id="Fill-90"
           d="m 10.07824,0 c 0,0.96909722 0,1.9378472 0,2.9451389 C 7.8746972,3.078125 5.7100221,3.2111111 3.4872208,3.3440972 3.3723691,5.1680556 3.3338517,6.9729167 3.2379085,8.7777778 3.1423155,10.582986 3.0848896,12.406944 3.0082051,14.211806 2.7399842,14.306944 0.4215899,14.306944 0.01925868,14.230903 0.01925868,14.116667 0,13.983681 0,13.869792 0,9.3670139 0,4.8638889 0,0.34201389 0,0.228125 0.01925868,0.11423611 0.01925868,0 3.3916278,0 6.7251293,0 10.07824,0"
           style="fill:#008080" />
        <path
           inkscape:connector-curvature="0"
           id="Fill-91"
           d="m 110.99545,14.26875 c -0.95803,0 -1.93497,0 -2.93152,0 -0.15302,-3.628819 -0.30639,-7.2579861 -0.45976,-10.9246528 -2.18393,-0.1329861 -4.34931,-0.2659722 -6.55285,-0.3989583 -0.0193,-0.095139 -0.0382,-0.1711806 -0.0382,-0.2472222 0,-0.8361111 0,-1.6909723 0,-2.52673614 0,-0.0572917 0.0189,-0.11423612 0.0189,-0.17118056 3.31494,0 6.64879,0 9.96339,0 0,4.75 0,9.5 0,14.26875"
           style="fill:#008080" />
        <path
           inkscape:connector-curvature="0"
           id="Fill-92"
           d="m 54.185158,21.526736 c 0,-3.363194 0,-6.687847 0,-10.069792 -0.766145,-0.152083 -1.532641,-0.304166 -2.299136,-0.455902 0,-0.893056 0,-1.7482642 0,-2.6409726 2.146117,0 4.292233,0 6.456909,0 0.05743,0.721875 0.13411,1.44375 0.191886,2.1656246 0.01926,0 0.03817,0.0191 0.05743,0.0191 0.07668,-0.09479 0.153369,-0.189931 0.229703,-0.284723 0.823922,-1.0451384 1.839379,-1.8052079 3.180483,-2.0902773 1.111401,-0.2277778 2.222801,-0.1899306 3.314943,0.2090277 1.494473,0.5510417 2.395079,1.6531246 2.816669,3.1541666 0.248962,0.854861 0.363814,1.747917 0.363814,2.640972 0,2.298959 0,4.59757 0,6.896875 0,0.132986 0,0.284723 0,0.455903 0.709419,0.152083 1.39888,0.30382 2.107949,0.455903 0,0.873958 0,1.728819 0,2.584028 -0.268571,0.07604 -8.028416,0.09479 -8.430397,0.0191 0,-0.855208 0,-1.69132 0,-2.603125 0.593867,-0.152083 1.206994,-0.30382 1.858287,-0.455903 0,-0.09514 0.01926,-0.209028 0.01926,-0.304167 0,-2.279861 0,-4.578819 0,-6.85868 0,-0.380208 -0.05743,-0.779167 -0.134111,-1.139931 -0.191886,-0.93125 -0.766495,-1.481944 -1.686009,-1.653125 -0.727978,-0.132986 -1.456656,-0.132986 -2.146117,0.171181 -0.287479,0.113889 -0.5557,0.303819 -0.823921,0.475 -0.42159,0.284722 -0.613126,0.66493 -0.593868,1.215625 0.03817,2.56493 0.01926,5.130208 0.01926,7.695139 0,0.132986 0,0.246875 0,0.398958 0.593868,0.152083 1.168476,0.30382 1.762694,0.455903 0,0.873958 0,1.747917 0,2.621875 -2.778502,0 -5.518486,0 -8.296637,0 0,-0.873958 0,-1.71007 0,-2.621875 0.632385,-0.132986 1.302937,-0.28507 2.030915,-0.455903"
           style="fill:#008080" />
        <path
           inkscape:connector-curvature="0"
           id="Fill-93"
           d="m 44.988615,17.745833 c -0.07668,0 -0.13446,-0.0191 -0.191886,-0.0191 -0.747237,0 -1.513732,0 -2.260619,0 -0.440848,0 -0.862438,0.07604 -1.265119,0.265972 -0.70872,0.322917 -1.168477,0.854861 -1.321846,1.614931 -0.153369,0.855208 0.230054,1.59618 0.97729,1.9 0.248963,0.09514 0.555701,0.152083 0.823571,0.17118 1.207344,0.05694 2.24206,-0.342013 3.065631,-1.235069 0.134461,-0.152083 0.191887,-0.304167 0.191887,-0.494097 -0.01891,-0.627084 0,-1.272917 0,-1.9 0,-0.113889 -0.01891,-0.209028 -0.01891,-0.30382 z m 4.521587,4.046875 c 0.497924,0.07604 0.919864,0.132986 1.341454,0.189931 0,0.873958 0,1.728819 0,2.603125 -1.705268,0 -3.391628,0 -5.135063,0 -0.172628,-0.532292 -0.345255,-1.045139 -0.5557,-1.672222 -0.09594,0.132986 -0.153369,0.247222 -0.230054,0.323264 -1.379621,1.348958 -3.046722,1.842708 -4.943527,1.652777 -0.632034,-0.05694 -1.264419,-0.18993 -1.839378,-0.455902 -1.570808,-0.740973 -2.433246,-1.976042 -2.605524,-3.686112 -0.05743,-0.607986 -0.05743,-1.215972 0.09559,-1.823958 0.248962,-1.006944 0.823921,-1.766667 1.667101,-2.355903 0.84283,-0.569791 1.781953,-0.873958 2.778151,-1.063889 0.958032,-0.17118 1.916064,-0.228125 2.893004,-0.209027 0.651643,0 1.322545,0 1.95458,0 0.03852,-0.03785 0.05778,-0.05694 0.05778,-0.07604 0,-0.627083 0.03817,-1.235069 0,-1.861806 -0.09594,-1.12118 -0.728678,-1.805208 -1.839378,-2.014236 -0.958382,-0.18993 -1.897155,-0.07604 -2.797761,0.323264 -0.230053,0.09479 -0.344905,0.227778 -0.383072,0.49375 -0.05743,0.45625 -0.153369,0.93125 -0.230054,1.387153 -0.268221,0.07604 -2.950429,0.09514 -3.333852,0.0191 0,-0.09514 -0.01926,-0.190278 -0.01926,-0.304166 0,-0.987848 0.01926,-1.995139 0.01926,-2.982987 0,-0.228125 0.07669,-0.3611107 0.268221,-0.4749996 1.494473,-0.9118055 3.08489,-1.5579861 4.847584,-1.6909722 1.513732,-0.1329861 3.008205,-0.037847 4.445252,0.5319445 0.613126,0.2472222 1.168476,0.5701389 1.666751,0.9690972 1.015808,0.8361111 1.571508,1.9378471 1.743785,3.2298611 0.03817,0.380208 0.05743,0.779167 0.05743,1.159028 0,2.337153 0,4.654861 0,6.992014 0.03817,0.265972 0.05743,0.512847 0.07668,0.797916 z"
           style="fill:#008080" />
        <path
           inkscape:connector-curvature="0"
           id="Fill-94"
           d="m 97.832669,17.745833 c -0.09594,-0.0191 -0.134111,-0.0191 -0.191887,-0.0191 -0.747236,0 -1.513732,-0.0191 -2.260618,0.0191 -0.383423,0.0191 -0.766845,0.07604 -1.149918,0.209028 -0.670552,0.208681 -1.149568,0.664931 -1.39888,1.348958 -0.344555,0.96875 0.01926,2.241667 1.552249,2.375 0.287129,0.01875 0.593868,0.01875 0.881347,-0.0191 0.958032,-0.114236 1.743435,-0.531944 2.37582,-1.253819 0.07668,-0.09514 0.153369,-0.228125 0.153369,-0.342361 0.05743,-0.759723 0.03852,-1.538889 0.03852,-2.317709 z m -0.01926,-2.431944 c 0,-0.722222 0.05743,-1.40625 -0.01926,-2.071181 -0.13446,-1.082986 -0.785754,-1.728819 -1.916063,-1.9 -0.919514,-0.132986 -1.801211,-0.05694 -2.663299,0.323264 -0.248962,0.113889 -0.383423,0.265972 -0.42159,0.551042 -0.05743,0.455903 -0.134111,0.892708 -0.210795,1.348958 -0.268221,0.07604 -2.931521,0.09479 -3.353111,0.01875 0,-0.113889 0,-0.246875 0,-0.360764 0,-0.969097 0.01926,-1.938194 0.01926,-2.926041 0,-0.228125 0.07668,-0.3611114 0.268571,-0.4750003 1.494123,-0.9121528 3.08454,-1.5579861 4.847233,-1.6909723 1.513732,-0.1329861 3.008206,-0.038194 4.445253,0.5319445 0.613126,0.246875 1.168826,0.5701389 1.666752,0.9690972 0.99655,0.8170139 1.55225,1.8809029 1.72453,3.1538199 0.0574,0.379861 0.0767,0.779166 0.0767,1.159027 0,2.336806 0,4.693056 0,7.029861 0,0.265973 0.0193,0.531945 0.0382,0.836112 0.46011,0.07604 0.90095,0.132986 1.34145,0.18993 0,0.873958 0,1.72882 0,2.584028 -0.26822,0.07604 -4.674954,0.09479 -5.135062,0.01875 -0.172277,-0.49375 -0.344905,-1.026042 -0.536441,-1.652778 -0.114852,0.152083 -0.172278,0.265972 -0.268221,0.360764 -1.379622,1.330208 -3.027114,1.824306 -4.924268,1.634028 -0.555701,-0.05695 -1.092142,-0.152084 -1.609325,-0.360764 -1.68601,-0.684028 -2.625133,-1.956945 -2.835577,-3.743056 -0.07668,-0.607986 -0.05743,-1.215972 0.07633,-1.823958 0.248962,-1.006944 0.804662,-1.786111 1.647842,-2.375 0.84318,-0.588889 1.801211,-0.893056 2.816319,-1.082986 0.939123,-0.171181 1.897154,-0.228125 2.855186,-0.209028 0.68946,-0.03785 1.360363,-0.03785 2.069432,-0.03785 z"
           style="fill:#008080" />
        <path
           inkscape:connector-curvature="0"
           id="Fill-95"
           d="m 75.98983,13.907639 c -1.149918,0 -2.24206,0 -3.372369,0 0,-1.842708 0,-3.666667 0,-5.4906251 0.26822,-0.076042 12.186189,-0.1142361 13.048277,-0.038195 0.01891,0.076042 0.03817,0.1711806 0.03817,0.246875 0,0.6652778 0,1.3302084 0,1.9951391 0,0.209028 -0.09594,0.361111 -0.210795,0.512848 -2.433246,3.230208 -4.866492,6.440971 -7.299738,9.670832 -0.09594,0.114236 -0.172978,0.247222 -0.268571,0.361111 0.268571,0.07604 4.042921,0.09514 4.48377,0.0191 0.05743,-0.684029 0.114852,-1.368055 0.172278,-2.032987 0.249312,-0.09514 2.874094,-0.113889 3.372369,-0.03785 0,1.823611 0,3.628819 0,5.471875 -4.521937,0 -9.024616,0 -13.546552,0 -0.01891,-0.07604 -0.01891,-0.132986 -0.01891,-0.190278 0,-0.740972 0,-1.481944 0,-2.222917 0,-0.170833 0.07633,-0.285069 0.172278,-0.398958 1.667101,-2.185069 3.314943,-4.369792 4.981694,-6.573958 0.785404,-1.044792 1.571157,-2.070834 2.356911,-3.115972 0.07668,-0.09479 0.134111,-0.189931 0.229704,-0.322917 -1.321846,0 -2.605524,0 -3.908811,0 -0.153369,0.722222 -0.13411,1.425 -0.229703,2.146875"
           style="fill:#008080" />
        <path
           inkscape:connector-curvature="0"
           id="Fill-96"
           d="m 8.6219338,19.189583 c 1.0158075,0 2.0312652,0 3.0467222,0 0.03852,0.07604 0.07668,0.171181 0.09594,0.247223 0.153019,0.512847 0.306388,1.026041 0.440149,1.557986 0.05813,0.246875 0.191886,0.417708 0.402681,0.49375 0.344905,0.132986 0.689811,0.266319 1.034716,0.323264 0.785404,0.151736 1.571158,0.170833 2.356562,-0.0382 0.287479,-0.07604 0.5557,-0.18993 0.804662,-0.342014 0.881697,-0.569791 0.958382,-1.690972 0.191886,-2.39375 -0.287479,-0.266319 -0.632384,-0.45625 -1.015457,-0.570139 C 15.309246,18.258681 14.619435,18.06875 13.948533,17.916667 12.933426,17.669792 11.917618,17.403819 10.978845,16.928819 10.442054,16.662847 9.9252208,16.339931 9.5036309,15.921875 8.8138202,15.256597 8.4496561,14.420833 8.3922303,13.470833 8.2773786,11.361806 9.4076877,9.5760417 11.438603,8.7017361 12.339208,8.3027778 13.277981,8.1319444 14.255271,8.09375 16.113908,7.9989583 17.91477,8.2649306 19.639296,9.0059028 20.118312,9.2149306 20.539902,9.5 20.999659,9.7659722 c 0.134461,0.076042 0.191887,0.1708334 0.191887,0.3420138 0,1.215972 0.01891,2.431945 0.03817,3.647917 0,0.05694 -0.01926,0.113889 -0.01926,0.18993 -0.97729,0 -1.95458,0 -2.950779,0 C 18.125565,13.413889 17.991454,12.881944 17.895511,12.35 17.838085,12.007639 17.665808,11.817708 17.378328,11.646875 16.324353,11.095833 15.213303,10.925 14.063735,11.228819 c -0.402331,0.09514 -0.728328,0.304167 -1.015457,0.607987 -0.613127,0.66493 -0.555701,1.653125 0.153019,2.203819 0.230053,0.190278 0.517533,0.342014 0.805012,0.437153 0.708719,0.209028 1.437048,0.398958 2.145767,0.551041 0.996549,0.227778 1.973489,0.475 2.893353,0.911806 0.459757,0.228125 0.900606,0.475 1.302587,0.779167 0.939123,0.684027 1.39923,1.653125 1.494823,2.792708 0.13411,1.691319 -0.498274,3.021181 -1.858637,4.009028 -0.900606,0.66493 -1.916063,1.045139 -3.008555,1.235069 -1.800861,0.304167 -3.582814,0.228125 -5.345508,-0.322916 C 10.63394,24.110764 9.7140757,23.635764 8.8905047,22.989583 8.775653,22.894444 8.660101,22.799653 8.660101,22.628819 c 0,-1.102083 -0.018909,-2.204166 -0.038167,-3.30625 -0.019259,-0.03785 -0.019259,-0.07569 0,-0.132986"
           style="fill:#008080" />
        <path
           inkscape:connector-curvature="0"
           id="Fill-97"
           d="m 25.905019,11.456944 c -0.824271,0 -1.590417,0 -2.37617,0 0,-1.026041 0,-2.0329857 0,-3.0781246 0.766495,0 1.551899,0 2.37617,0 0,-1.3489583 0,-2.6597222 0,-3.9899305 1.474864,0 2.911912,0 4.368218,0 0.09594,0.3232639 0.03817,0.6461805 0.03817,0.9690972 0.01926,0.3229167 0,0.6649306 0,0.9878472 0,0.3229167 0,0.6649306 0,0.9881945 0,0.3229166 0,0.6458333 0,1.0260416 0.958381,0 1.896804,0 2.855186,0 0,1.0447917 0,2.0517366 0,3.0777776 -0.306738,0.07604 -0.613126,0.0191 -0.939123,0.03785 -0.306388,0 -0.613126,0 -0.919514,0 -0.325647,0 -0.632035,0 -0.977291,0 -0.01926,0.133334 -0.01926,0.228125 -0.01926,0.323264 0,2.640973 0,5.300695 0,7.941667 0,0.285069 0.03852,0.570139 0.115202,0.836111 0.13376,0.531945 0.517183,0.854861 1.053624,0.873958 0.536792,0.0191 1.073234,-0.05694 1.609675,-0.07604 0.05743,0 0.114852,-0.0191 0.210795,-0.03785 0.133761,1.044791 0.248962,2.08993 0.383073,3.192013 -0.383073,0.09479 -0.747237,0.189931 -1.111051,0.265625 -1.073233,0.209028 -2.146116,0.28507 -3.238608,0.05729 -1.858288,-0.361111 -2.95043,-1.481944 -3.314243,-3.325 -0.114852,-0.589236 -0.15372,-1.178125 -0.15372,-1.786111 0,-2.602778 0,-5.205903 0,-7.808681 0.03887,-0.152083 0.03887,-0.304166 0.03887,-0.475"
           style="fill:#008080" />
        <path
           inkscape:connector-curvature="0"
           id="Fill-98"
           d="m 72.099927,35.738542 c -0.574608,-0.05729 -1.072533,-0.0382 -1.551549,0.09479 -0.536791,0.132986 -1.034716,0.342014 -1.456656,0.703125 -0.306388,0.246875 -0.478665,0.569792 -0.459406,0.969098 0,0.265972 0.09559,0.322916 0.363813,0.284722 0.42159,-0.05694 0.785754,-0.246875 1.13066,-0.49375 0.574608,-0.418056 1.149568,-0.855209 1.724176,-1.292014 0.05743,-0.05694 0.134111,-0.152083 0.248962,-0.265971 z M 38.991464,35.035417 c 0.09559,-0.03785 0.153019,-0.03785 0.191186,-0.05695 1.015807,-0.475 1.95458,-1.045139 2.79776,-1.767014 0.267871,-0.228125 0.497924,-0.512847 0.708719,-0.779166 0.153369,-0.189931 0.229704,-0.417709 0.210795,-0.664931 -0.01926,-0.341667 -0.230053,-0.531944 -0.574959,-0.455903 -0.229703,0.05695 -0.459757,0.132986 -0.632385,0.28507 -0.325296,0.265972 -0.670552,0.570139 -0.919514,0.911805 -0.593867,0.779167 -1.130309,1.577084 -1.705268,2.375 -0.01891,0.0191 -0.03817,0.05694 -0.07633,0.152084 z m 31.154233,5.88993 c -0.09559,0.0191 -0.153019,0.03785 -0.210445,0.03785 -1.245511,0.28507 -2.452504,0.627084 -3.64059,1.102084 -0.97729,0.379861 -1.897154,0.836111 -2.701817,1.501041 -1.072883,0.893056 -1.686009,1.994792 -1.743435,3.401042 -0.01926,0.455903 0.05743,0.892708 0.28748,1.292014 0.306388,0.512847 0.785403,0.740972 1.379621,0.607639 0.229703,-0.05694 0.440498,-0.151736 0.651293,-0.246875 1.437048,-0.76007 2.586616,-1.804861 3.487221,-3.15382 0.900606,-1.348958 1.667101,-2.773958 2.356562,-4.237152 0.05743,-0.09479 0.09594,-0.170834 0.13411,-0.30382 z M 44.432915,38.436458 c 0.172277,-0.114236 0.344555,-0.228125 0.517183,-0.361111 0.842829,-0.721875 1.686009,-1.444097 2.529189,-2.146875 0.191536,-0.152083 0.383423,-0.322916 0.593868,-0.437153 0.460107,-0.246875 0.881347,-0.03785 0.900255,0.475 0.01926,0.437153 -0.05743,0.893056 -0.09559,1.330209 -0.03817,0.436805 -0.07668,0.854861 -0.09559,1.291666 0,0.152084 0.05743,0.304167 0.09559,0.513195 0.172628,-0.07604 0.287479,-0.113889 0.383423,-0.189931 0.172277,-0.113889 0.325296,-0.228125 0.479016,-0.361111 0.747236,-0.66493 1.436697,-1.386805 2.069081,-2.165972 0.114852,-0.152083 0.191887,-0.285069 0.15337,-0.475 -0.01926,-0.09514 0,-0.209028 0.01891,-0.303819 0.09629,-0.342014 0.364164,-0.494098 0.70942,-0.380209 0.306388,0.09514 0.440148,0.361111 0.325296,0.703125 -0.03817,0.113889 -0.09559,0.228125 -0.153019,0.342014 0.267871,0.494097 0.651294,0.627083 1.149568,0.379861 0.517533,-0.246875 0.97729,-0.607986 1.39853,-1.006944 0.268571,-0.246875 0.42159,-0.28507 0.613126,-0.152084 0.211145,0.132987 0.211145,0.304167 0.03817,0.646181 -0.325296,0.627083 -0.497574,1.310764 -0.632034,1.994792 0,0.03819 0,0.09514 0.01926,0.18993 0.28748,-0.18993 0.555351,-0.322916 0.804663,-0.512847 0.613126,-0.455903 1.207344,-0.930903 1.82047,-1.386806 0.382722,-0.285069 0.766145,-0.551041 1.149568,-0.817013 0.344555,-0.228125 0.727978,-0.380209 1.149568,-0.437153 0.459406,-0.05694 0.747236,0.152083 0.766145,0.607986 0,0.228125 -0.03817,0.475 -0.09559,0.684028 -0.134111,0.455902 -0.306739,0.912152 -0.459757,1.368055 -0.03852,0.113889 -0.07669,0.209028 -0.07669,0.361111 0.07669,-0.07604 0.172278,-0.17118 0.248962,-0.247222 0.708719,-0.703125 1.418139,-1.405903 2.24171,-1.994792 0.325997,-0.247222 0.689811,-0.45625 1.053975,-0.64618 0.172277,-0.09514 0.401981,-0.152083 0.593867,-0.189931 0.402331,-0.05694 0.651294,0.113889 0.766495,0.512848 0.114852,0.437152 0.07634,0.855208 -0.03852,1.292013 -0.09559,0.418056 -0.229703,0.836112 -0.344905,1.254167 -0.01926,0.05695 -0.03817,0.132986 -0.05743,0.246875 0.115202,-0.03785 0.191886,-0.03785 0.268221,-0.07604 1.168826,-0.475 2.222801,-1.120833 3.084889,-2.070833 0.670552,-0.760069 1.532991,-1.082986 2.490672,-1.272917 0.613126,-0.114236 1.245511,-0.09514 1.858637,0.05694 0.07668,0.01875 0.134461,0.03785 0.210795,0.05694 0.363814,0.132986 0.42159,0.265973 0.28748,0.607986 -0.28748,0.740973 -0.574959,1.481945 -0.862088,2.222917 -0.211146,0.513195 -0.440849,1.026042 -0.651644,1.557986 -0.03817,0.07604 -0.05743,0.171181 -0.115202,0.304167 0.364164,-0.05729 0.690161,-0.114236 0.996549,-0.190278 2.721076,-0.49375 5.441451,-0.96875 8.124009,-1.61493 3.487221,-0.835764 6.85924,-1.994792 10.116758,-3.514931 0.5557,-0.265972 1.130309,-0.512847 1.686009,-0.817014 0.325647,-0.170833 0.613126,-0.398958 0.900606,-0.626736 0.344905,-0.304167 0.574609,-0.684028 0.574609,-1.159028 0,-0.247222 0.114851,-0.361111 0.325996,-0.361111 0.210445,0 0.383073,0.113889 0.42124,0.342014 0.03852,0.322917 0,0.645833 -0.172277,0.912153 -0.172278,0.284722 -0.363814,0.550694 -0.613127,0.759722 -0.325646,0.265972 -0.68981,0.494097 -1.053974,0.703125 -1.551899,0.911806 -3.21865,1.595833 -4.90501,2.260764 -3.295334,1.311111 -6.705871,2.280208 -10.193091,2.906944 -2.088691,0.380209 -4.177032,0.798264 -6.284631,1.178125 -0.268221,0.05694 -0.42124,0.171181 -0.536792,0.418056 -0.536092,1.102083 -1.072533,2.185069 -1.628233,3.268055 -0.805013,1.557987 -1.877546,2.887848 -3.238259,4.008681 -0.5557,0.455903 -1.111401,0.873958 -1.781953,1.121181 -0.287129,0.113888 -0.593867,0.209027 -0.919514,0.246875 -0.747587,0.09514 -1.341454,-0.189931 -1.743435,-0.817014 -0.460108,-0.703125 -0.632385,-1.462848 -0.498275,-2.279861 0.306388,-1.843056 1.302587,-3.268056 2.893003,-4.255903 1.513732,-0.912153 3.161575,-1.481945 4.866843,-1.919097 0.498274,-0.132987 1.015457,-0.246875 1.513731,-0.361112 0.134111,-0.03785 0.229704,-0.09479 0.28713,-0.227777 0.364514,-0.893056 0.747236,-1.805209 1.1114,-2.697917 0,-0.0191 0,-0.03819 0,-0.09514 -0.07633,0.05694 -0.153019,0.09514 -0.229703,0.132986 -0.479016,0.323264 -0.958032,0.646181 -1.456306,0.930903 -0.306388,0.171181 -0.670552,0.304167 -1.015808,0.399306 -0.536441,0.132986 -0.938422,-0.09514 -1.168476,-0.589237 -0.03852,-0.07604 -0.05743,-0.151736 -0.09594,-0.227777 -0.479016,0.303819 -0.957682,0.626736 -1.455956,0.892708 -0.402331,0.228125 -0.824271,0.399306 -1.245511,0.551042 -0.153369,0.05694 -0.344905,0.07604 -0.517183,0.05694 -0.268571,0 -0.42159,-0.151736 -0.440849,-0.417708 -0.01926,-0.247222 0,-0.494097 0.05743,-0.722222 0.114852,-0.49375 0.28748,-0.987848 0.402331,-1.481945 0.05778,-0.246875 0.115202,-0.49375 -0.05742,-0.760069 -0.383073,0.09514 -0.689461,0.304166 -0.977291,0.551041 -0.574608,0.475 -1.149567,0.969098 -1.705268,1.481945 -0.459757,0.437153 -0.900255,0.893055 -1.360363,1.330208 -0.172277,0.170833 -0.364164,0.342014 -0.574608,0.475 -0.306738,0.189931 -0.517533,0.09479 -0.613126,-0.247222 -0.03817,-0.170833 -0.05743,-0.360764 -0.01926,-0.512847 0.09594,-0.361111 0.210795,-0.721875 0.345255,-1.063889 0.172278,-0.437153 0.363814,-0.855209 0.536092,-1.292014 0.07703,-0.171181 0.115202,-0.342014 0.191886,-0.589236 -0.13446,0.0191 -0.230404,0.0191 -0.306738,0.05729 -0.248962,0.132987 -0.517533,0.246875 -0.747236,0.417709 -0.632385,0.437153 -1.245511,0.893055 -1.858638,1.348958 -0.440498,0.323264 -0.862438,0.646181 -1.321845,0.95 -0.249313,0.171181 -0.536442,0.28507 -0.824271,0.380208 -0.325297,0.09479 -0.593868,-0.03819 -0.689461,-0.380208 -0.05743,-0.246875 -0.05743,-0.512847 -0.03852,-0.759722 0.03852,-0.265972 0.114851,-0.551042 0.191536,-0.873958 -0.459407,0.20868 -0.84283,0.455902 -1.321846,0.455902 -0.498274,0 -0.862088,-0.285069 -1.206993,-0.627083 -0.115202,0.132986 -0.230054,0.265972 -0.345256,0.398958 -0.632385,0.740973 -1.302937,1.444098 -2.08834,2.052084 -0.249313,0.18993 -0.517183,0.342014 -0.785404,0.436805 -0.536442,0.171181 -0.862439,-0.01875 -1.015458,-0.569791 -0.13411,-0.494098 -0.07668,-1.006945 -0.01926,-1.501042 0.05743,-0.455903 0.09559,-0.911806 0.153369,-1.348958 -0.01926,-0.0191 -0.05778,-0.03785 -0.07668,-0.05694 -0.09594,0.07604 -0.191536,0.132986 -0.287479,0.227778 -0.459757,0.418055 -0.919514,0.836111 -1.39888,1.235069 -0.42159,0.361111 -0.862089,0.703125 -1.302587,1.026042 -0.210795,0.152083 -0.479366,0.265972 -0.727978,0.361111 -0.479366,0.151736 -0.805013,-0.05694 -0.824271,-0.551042 -0.01926,-0.398958 0.03817,-0.797916 0.09594,-1.178125 0.03852,-0.303819 0.115202,-0.588888 0.191536,-0.95 -0.153019,0.114237 -0.249312,0.171181 -0.344905,0.247223 -1.13066,0.854861 -2.260969,1.728819 -3.410186,2.56493 -0.862439,0.645834 -1.762694,1.196875 -2.759243,1.634028 -0.306738,0.132986 -0.613126,0.227778 -0.939123,0.265972 -0.651294,0.07569 -1.111401,-0.323264 -1.206994,-0.969097 -0.05743,-0.398958 0,-0.797917 0.153369,-1.178125 0.268221,-0.626736 0.613126,-1.177778 1.015458,-1.728819 0.153019,-0.209028 0.306738,-0.418056 0.479015,-0.664931 -0.114851,0 -0.172277,0 -0.229703,0.01875 -1.781953,0.418056 -3.563906,0.836111 -5.365117,1.254167 -2.79741,0.66493 -5.59482,1.292014 -8.373322,1.976041 -0.995848,0.246875 -1.95423,0.626736 -2.911911,0.96875 -0.325997,0.114236 -0.632385,0.28507 -0.919865,0.45625 -0.42159,0.246875 -0.747236,0.550695 -0.919864,1.026042 -0.07669,0.227778 -0.287129,0.303819 -0.517183,0.227778 -0.191536,-0.07604 -0.28748,-0.265972 -0.191536,-0.494097 0.13411,-0.265973 0.287479,-0.531945 0.479015,-0.759723 0.325997,-0.361111 0.747237,-0.607986 1.168827,-0.817014 1.26442,-0.627083 2.586265,-1.064236 3.946978,-1.425 3.142315,-0.836111 6.341707,-1.520138 9.522539,-2.185069 1.590067,-0.342014 3.180483,-0.684028 4.713474,-1.196875 0.230053,-0.07604 0.402331,-0.189931 0.536791,-0.398958 0.555701,-0.855209 1.13031,-1.71007 1.704918,-2.546181 0.344906,-0.49375 0.728328,-0.95 1.111401,-1.405903 0.249312,-0.285069 0.574609,-0.512847 0.938773,-0.66493 0.364164,-0.152084 0.747236,-0.189931 1.149568,-0.09514 0.613126,0.152083 0.938772,0.703125 0.843179,1.311111 -0.07668,0.475 -0.287479,0.893056 -0.574959,1.272917 -0.383072,0.494097 -0.862088,0.893055 -1.379271,1.254166 -1.015807,0.684028 -2.08834,1.215973 -3.219,1.652778 -0.210795,0.07604 -0.364164,0.189931 -0.479016,0.380208 -0.459757,0.664931 -0.919864,1.291667 -1.379621,1.956945 -0.248962,0.360764 -0.497924,0.721875 -0.574959,1.159028 -0.03817,0.170833 -0.03817,0.379861 0,0.550694 0.03852,0.228125 0.153719,0.304167 0.364164,0.28507 0.210795,-0.0191 0.42159,-0.03785 0.613126,-0.132987 0.440849,-0.209027 0.900606,-0.418055 1.302937,-0.684027 1.475565,-0.930903 2.874095,-1.975695 4.234458,-3.039931 0.479015,-0.360764 0.938772,-0.740972 1.417788,-1.120833 0.05743,-0.05695 0.134111,-0.114236 0.191536,-0.152084 0.28748,-0.18993 0.593868,-0.07604 0.632385,0.265973 0.03817,0.265972 0.01926,0.570139 -0.03852,0.836111 -0.09559,0.475 -0.229704,0.930903 -0.344555,1.405903 -0.03817,0.170833 -0.03817,0.361111 -0.05743,0.551041 0.153369,0.07604 0.172277,0.09479 0.210795,0.132986 z"
           style="fill:#008080" />
        <path
           inkscape:connector-curvature="0"
           id="Fill-99"
           d="m 56.043795,34.446528 c -0.229703,0 -0.440499,0 -0.536442,-0.247222 -0.115202,-0.265973 -0.13411,-0.531945 0.09594,-0.759723 0.172278,-0.190277 0.383073,-0.361111 0.593868,-0.494097 0.287479,-0.18993 0.97694,0.03785 1.11105,0.361111 0.09629,0.227778 0.07704,0.436806 -0.09559,0.626736 -0.325646,0.342014 -0.709069,0.513195 -1.168826,0.513195"
           style="fill:#008080" />
        <path
           inkscape:connector-curvature="0"
           id="Fill-100"
           d="m 45.505798,34.2375 c -0.459757,0 -0.785754,-0.398958 -0.670902,-0.760069 0.172628,-0.512848 0.536442,-0.854862 1.053975,-1.006945 0.364164,-0.113889 0.613126,0.132986 0.536441,0.494097 -0.07668,0.398959 -0.248962,0.759723 -0.5557,1.044792 -0.13411,0.132986 -0.306388,0.189931 -0.363814,0.228125"
           style="fill:#008080" />
      </g>
    </g>
  </g>
</svg>
